<svg id="visual" viewBox="0 0 960 540" width="960" height="540" xmlns="http://www.w3.org/2000/svg" xmlns:xlink="http://www.w3.org/1999/xlink" version="1.1"><path d="M0 108L32 98.8C64 89.7 128 71.3 192 60.8C256 50.3 320 47.7 384 58.5C448 69.3 512 93.7 576 97.5C640 101.3 704 84.7 768 81.2C832 77.7 896 87.3 928 92.2L960 97L960 0L928 0C896 0 832 0 768 0C704 0 640 0 576 0C512 0 448 0 384 0C320 0 256 0 192 0C128 0 64 0 32 0L0 0Z" fill="#FDF5E6" stroke-linecap="round" stroke-linejoin="miter"></path></svg>